<svg xmlns="http://www.w3.org/2000/svg" aria-hidden="true" style="position:absolute;width:0;height:0;overflow:hidden"><defs><symbol id="icon-Bag_alt" viewBox="0 0 110 110"><path fill="none" stroke="#fff" stroke-linecap="round" stroke-width="9.27" d="M35.769 53.654V35.769c0-9.877 8.007-17.885 17.885-17.885v0c9.877 0 17.885 8.007 17.885 17.885v17.885" style="stroke:var(--color1, #fff)"/><path fill="none" stroke="#fff" stroke-width="9.27" d="M16.468 57.241c.672-8.069 1.009-12.104 3.67-14.552s6.709-2.449 14.807-2.449h37.42c8.097 0 12.146 0 14.807 2.449s2.997 6.483 3.669 14.552l2.247 26.968c.378 4.532.567 6.798-.762 8.242s-3.602 1.444-8.149 1.444H23.133c-4.547 0-6.821 0-8.149-1.444s-1.14-3.709-.762-8.242l2.247-26.968z" style="stroke:var(--color1, #fff)"/></symbol><symbol id="icon-Arrow" viewBox="0 0 66 110"><path d="M5.484 49.815a7.333 7.333 0 0 0 0 10.371l46.669 46.669a7.333 7.333 0 1 0 10.371-10.371L21.04 55l41.484-41.484A7.333 7.333 0 1 0 52.153 3.145L5.484 49.814zm8.847-2.148h-3.662v14.667h3.662V47.667z"/></symbol><symbol id="icon-Arrow2" viewBox="0 0 66 110"><path d="M60.399 60.185a7.333 7.333 0 0 0 0-10.371L13.73 3.145A7.333 7.333 0 1 0 3.359 13.516L44.843 55 3.359 96.484a7.333 7.333 0 1 0 10.371 10.371l46.669-46.669zm-8.847 2.148h3.662V47.666h-3.662v14.667z"/></symbol><symbol id="icon-facebook" viewBox="0 0 110 110"><path d="M73.32 18.264h10.042V.774c-1.733-.238-7.691-.775-14.63-.775-14.479 0-24.397 9.107-24.397 25.845v15.405H28.357v19.552h15.978v49.198h19.589V60.806h15.331l2.434-19.552H63.92v-13.47c.005-5.651 1.526-9.52 9.4-9.52z"/></symbol><symbol id="icon-hand" viewBox="0 0 88 110"><path stroke-linecap="round" stroke-width="32.222" d="M70.87 72.825 22.537 24.492"/></symbol><symbol id="icon-hart" viewBox="0 0 472 110"><path fill="#fff" d="M0 6.471A6.47 6.47 0 0 1 6.471 0h116.924a6.47 6.47 0 0 1 6.471 6.471v97.059a6.47 6.47 0 0 1-6.471 6.471H6.471A6.47 6.47 0 0 1 0 103.53V6.471zM342.488 6.471A6.47 6.47 0 0 1 348.959 0h116.924a6.47 6.47 0 0 1 6.471 6.471v97.059a6.47 6.47 0 0 1-6.471 6.471H348.959a6.47 6.47 0 0 1-6.471-6.471V6.471z" style="fill:var(--color1, #fff)"/><path fill="#4e7c32" d="M171.243 6.471A6.47 6.47 0 0 1 177.714 0h116.924a6.47 6.47 0 0 1 6.471 6.471v97.059a6.47 6.47 0 0 1-6.471 6.471H177.714a6.47 6.47 0 0 1-6.471-6.471V6.471z" style="fill:var(--color3, #4e7c32)"/><path fill="none" stroke="#fff" stroke-linecap="round" stroke-linejoin="round" stroke-width="4.853" d="M254.231 72.938H217.5c-.447 0-.879-.16-1.212-.451s-.545-.69-.594-1.123l-3.231-28.31a1.729 1.729 0 0 1 .452-1.376c.17-.186.379-.334.612-.435s.486-.154.742-.154h43.193c.256 0 .508.052.742.154s.442.25.612.435c.17.185.299.404.377.641s.104.487.075.735l-3.231 28.31c-.05.433-.261.833-.594 1.123s-.765.451-1.212.451z" style="stroke:var(--color1, #fff)"/><path fill="none" stroke="#fff" stroke-linecap="round" stroke-linejoin="round" stroke-width="4.853" d="M226.777 48.166v-7.077c0-2.346.958-4.597 2.662-6.256s4.016-2.591 6.426-2.591 4.722.932 6.426 2.591 2.662 3.91 2.662 6.256v7.077" style="stroke:var(--color1, #fff)"/><path fill="none" stroke="#4e7c32" stroke-linecap="round" stroke-linejoin="round" stroke-width="4.853" d="M407.107 72.938s-22.718-12.386-22.718-27.426c.003-2.658.948-5.234 2.679-7.29s4.138-3.464 6.817-3.987c2.676-.522 5.458-.126 7.868 1.122s4.303 3.27 5.354 5.723v0a11.624 11.624 0 0 1 5.358-5.723 12.09 12.09 0 0 1 7.868-1.122c2.676.522 5.086 1.931 6.817 3.987s2.676 4.632 2.676 7.29c0 15.04-22.718 27.426-22.718 27.426zM80.068 72.938c3.513 0 6.361-2.773 6.361-6.193s-2.848-6.193-6.361-6.193-6.361 2.773-6.361 6.193 2.848 6.193 6.361 6.193zM80.069 60.552v-8.873c0-2.815-1.149-5.516-3.194-7.506l-8.619-8.392" style="stroke:var(--color3, #4e7c32)"/><path fill="none" stroke="#4e7c32" stroke-linecap="round" stroke-linejoin="round" stroke-width="4.853" d="M68.255 44.628v-8.847h9.087M49.172 46.397c3.513 0 6.361-2.773 6.361-6.193s-2.848-6.193-6.361-6.193-6.361 2.773-6.361 6.193c0 3.42 2.848 6.193 6.361 6.193zM49.172 46.397v8.873c0 2.815 1.149 5.516 3.194 7.507l8.62 8.392" style="stroke:var(--color3, #4e7c32)"/><path fill="none" stroke="#4e7c32" stroke-linecap="round" stroke-linejoin="round" stroke-width="4.853" d="M60.985 62.322v8.847h-9.087" style="stroke:var(--color3, #4e7c32)"/></symbol><symbol id="icon-lense" viewBox="0 0 110 110"><path stroke-width="14.646" d="M100.246 57.196c0 24.267-19.672 43.939-43.939 43.939S12.368 81.463 12.368 57.196 32.04 13.257 56.307 13.257s43.939 19.672 43.939 43.939z"/></symbol><symbol id="icon-linkedin" viewBox="0 0 110 110"><path d="M24.54 108.29H2.195V37.967H24.54v70.323zM13.368 28.109C6.139 28.109.881 22.851.881 15.622S6.796 3.135 13.368 3.135c7.229 0 12.487 5.258 12.487 12.487s-5.258 12.487-12.487 12.487zm92.667 80.181H83.689V70.171c0-11.173-4.6-14.459-11.172-14.459S59.373 60.97 59.373 70.828v37.462H37.028V37.967h21.031v9.858c1.972-4.601 9.858-11.83 21.031-11.83 12.487 0 25.632 7.229 25.632 28.918v43.377h1.315z"/></symbol><symbol id="icon-lucide_youtube" viewBox="0 0 110 110"><path stroke-linecap="round" stroke-linejoin="round" stroke-width="9.167" d="M55 87.083c-10.542 0-29.333-.917-37.125-2.75-3.208-.917-5.5-3.208-6.417-6.417-1.375-5.042-2.292-15.583-2.292-22.917s.917-17.875 2.292-22.917c.917-3.208 3.208-5.5 6.417-6.417 7.792-1.833 26.583-2.75 37.125-2.75s29.333.917 37.125 2.75c3.208.917 5.5 3.208 6.417 6.417 1.375 5.042 2.292 15.583 2.292 22.917s-.917 17.875-2.292 22.917c-.917 3.208-3.208 5.5-6.417 6.417-7.792 1.833-26.583 2.75-37.125 2.75z"/><path stroke-linecap="round" stroke-linejoin="round" stroke-width="9.167" d="m45.832 68.751 22.917-13.75-22.917-13.75v27.5z"/></symbol><symbol id="icon-instagram" viewBox="0 0 110 110"><path d="M35.751 9.166h38.5c14.666 0 26.583 11.917 26.583 26.583v38.5a26.582 26.582 0 0 1-26.583 26.583h-38.5c-14.667 0-26.583-11.917-26.583-26.583v-38.5A26.584 26.584 0 0 1 35.751 9.166zm-.917 9.167a16.502 16.502 0 0 0-16.5 16.5v40.333c0 9.121 7.379 16.5 16.5 16.5h40.333a16.499 16.499 0 0 0 16.5-16.5V34.833c0-9.121-7.379-16.5-16.5-16.5H34.834zm44.229 6.875a5.729 5.729 0 1 1 0 11.458 5.729 5.729 0 0 1 0-11.458zm-24.062 6.875A22.913 22.913 0 0 1 77.917 55a22.917 22.917 0 1 1-22.916-22.917zm0 9.167A13.753 13.753 0 0 0 41.251 55a13.753 13.753 0 0 0 13.75 13.75A13.753 13.753 0 0 0 68.751 55a13.753 13.753 0 0 0-13.75-13.75z"/></symbol><symbol id="icon-twitter" viewBox="0 0 128 110"><path d="M128.329 17.493c-4.6 2.3-9.201 3.067-14.568 3.834 5.367-3.067 9.201-7.668 10.734-13.802-4.601 3.067-9.968 4.6-16.101 6.134-4.601-4.6-11.501-7.667-18.403-7.667-16.102 0-28.37 15.335-24.536 30.67-20.702-.767-39.104-10.735-52.139-26.07-6.901 11.501-3.067 26.07 7.668 33.737-3.834 0-7.668-1.533-11.501-3.067 0 11.501 8.434 22.236 19.936 25.303-3.834.767-7.668 1.533-11.501.767 3.067 9.968 12.268 17.635 23.769 17.635-9.201 6.901-23.003 10.734-36.037 9.201 11.501 6.901 24.536 11.5 38.338 11.5 46.772 0 72.842-39.104 71.308-75.141 5.367-3.067 9.968-7.668 13.034-13.035z"/></symbol><symbol id="icon-User" viewBox="0 0 110 110"><path fill="none" stroke="#fff" stroke-linecap="round" stroke-width="12.174" d="M90.417 93.716c-2.089-5.847-6.693-11.015-13.096-14.7S63.071 73.333 55 73.333c-8.072 0-15.918 1.998-22.321 5.683s-11.007 8.852-13.096 14.7"/><path fill="none" stroke="#fff" stroke-linecap="round" stroke-width="9.167" d="M73.333 36.667C73.333 46.792 65.125 55 55 55s-18.333-8.208-18.333-18.333c0-10.125 8.208-18.333 18.333-18.333s18.333 8.208 18.333 18.333z"/></symbol><symbol id="icon-Arrow-top" viewBox="0 0 110 110"><path fill="none" stroke="#fff" stroke-linecap="round" stroke-width="6.134" d="m29.515 46.982 24.536-24.536m0 0 24.536 24.536M54.051 22.446v61.34"/></symbol><symbol id="icon-cart" viewBox="0 0 117 110"><path fill="#fff" d="M111.165 21.218H20.523L19.179 6.21a4.758 4.758 0 0 0-4.744-4.335H4.766a4.76 4.76 0 1 0 0 9.52h5.313l5.477 61.004c.388 4.399 2.762 9.169 6.858 12.41-7.379 9.424-.638 23.317 11.369 23.317 9.961 0 16.984-9.934 13.568-19.348h26.058c-3.41 9.403 3.597 19.348 13.574 19.348a14.454 14.454 0 0 0 14.434-14.434 14.45 14.45 0 0 0-14.434-14.434H33.815a8.835 8.835 0 0 1-8.128-5.36l76.081-4.474a4.767 4.767 0 0 0 4.341-3.597l9.674-38.691a4.772 4.772 0 0 0-.867-4.086 4.772 4.772 0 0 0-3.755-1.832h.005zM33.778 98.605a4.917 4.917 0 0 1-3.33-8.31 4.917 4.917 0 0 1 3.33-1.517 4.917 4.917 0 0 1 3.33 8.31 4.917 4.917 0 0 1-3.33 1.517zm53.205 0a4.917 4.917 0 0 1-3.33-8.31 4.917 4.917 0 0 1 3.33-1.517 4.917 4.917 0 0 1 3.33 8.31 4.917 4.917 0 0 1-3.33 1.517zm10.736-38.479-73.312 4.303-3.028-33.687h83.688L97.72 60.125z"/></symbol><symbol id="icon-symbols" viewBox="0 0 314 110"><path fill="#f7f8fd" d="M20 0h274c11.046 0 20 8.954 20 20v70c0 11.046-8.954 20-20 20H20c-11.046 0-20-8.954-20-20V20C0 8.954 8.954 0 20 0z"/><path fill="#505f4e" d="M54.714 57.664c.169.001.336-.032.492-.097s.298-.159.418-.278A1.278 1.278 0 0 0 56 56.38v-4.094a1.267 1.267 0 0 0-.376-.911 1.282 1.282 0 0 0-.911-.376H33.285a1.267 1.267 0 0 0-.911.376 1.282 1.282 0 0 0-.376.911v4.092c0 .714.574 1.286 1.286 1.286h21.428z"/><path d="m148.375 64.969 1.844-3.563c.833.615 1.651 1.078 2.453 1.391.813.313 1.599.469 2.359.469.74 0 1.391-.141 1.953-.422.573-.281 1.021-.672 1.344-1.172s.484-1.073.484-1.719c0-1.073-.443-1.906-1.328-2.5-.885-.604-2.12-.906-3.703-.906h-1v-3.344h1c.854 0 1.615-.135 2.281-.406.677-.281 1.208-.661 1.594-1.141.385-.49.578-1.047.578-1.672 0-.521-.141-.984-.422-1.391a2.738 2.738 0 0 0-1.125-.953c-.469-.229-1.011-.344-1.625-.344-.635 0-1.302.135-2 .406-.687.271-1.411.682-2.172 1.234l-2.109-3.344a9.883 9.883 0 0 1 3.109-1.844 10.147 10.147 0 0 1 3.625-.656c1.406 0 2.651.255 3.734.766 1.094.51 1.953 1.214 2.578 2.109.635.896.953 1.927.953 3.094 0 1.271-.37 2.406-1.109 3.406s-1.713 1.766-2.922 2.297c1.573.438 2.807 1.167 3.703 2.188.906 1.021 1.359 2.26 1.359 3.719 0 1.302-.364 2.469-1.094 3.5-.719 1.021-1.703 1.828-2.953 2.422-1.25.583-2.672.875-4.266.875-1.312 0-2.578-.214-3.797-.641a11.488 11.488 0 0 1-3.328-1.859z"/><path fill="#505f4e" d="M282 57.046v-4.092c0-.169-.032-.336-.096-.493a1.312 1.312 0 0 0-.28-.418 1.292 1.292 0 0 0-.91-.376h-7.38v-7.382c0-.169-.032-.337-.098-.494a1.254 1.254 0 0 0-.698-.696 1.282 1.282 0 0 0-.494-.096h-4.09a1.293 1.293 0 0 0-1.19.794 1.3 1.3 0 0 0-.096.493v7.38h-7.382a1.283 1.283 0 0 0-1.286 1.29v4.092c0 .712.574 1.286 1.286 1.286h7.38v7.382c0 .712.576 1.286 1.288 1.286h4.092c.17.001.336-.032.492-.097.158-.064.3-.159.418-.279.12-.12.214-.262.28-.418a1.3 1.3 0 0 0 .096-.493v-7.38h7.382A1.283 1.283 0 0 0 282 57.043v.002z"/></symbol></defs></svg>