<svg width="101" height="14" viewBox="0 0 101 14" fill="none" xmlns="http://www.w3.org/2000/svg">
<path d="M90.1233 13.7823H87.2793V4.83216H90.1233V13.7823ZM88.7013 3.57747C87.7812 3.57747 87.1121 2.9083 87.1121 1.9882C87.1121 1.06809 87.8649 0.398926 88.7013 0.398926C89.6214 0.398926 90.2906 1.06809 90.2906 1.9882C90.2906 2.9083 89.6214 3.57747 88.7013 3.57747ZM100.495 13.7823H97.6514V8.9308C97.6514 7.50882 97.0659 7.09059 96.2295 7.09059C95.393 7.09059 94.5565 7.75976 94.5565 9.01445V13.7823H91.7126V4.83216H94.3892V6.08684C94.6402 5.50132 95.6439 4.58122 97.0659 4.58122C98.6552 4.58122 100.328 5.50132 100.328 8.26163V13.7823H100.495Z" fill="#F9F3EE"/>
<path d="M56.9995 2.90837C56.4977 3.15931 55.9958 3.24296 55.4103 3.3266C55.9958 2.99202 56.414 2.49014 56.5813 1.82098C56.0794 2.15556 55.4939 2.32285 54.8248 2.49014C54.3229 1.98827 53.5701 1.65369 52.8173 1.65369C51.0607 1.65369 49.7224 3.3266 50.1406 4.99952C47.8821 4.91587 45.8746 3.82848 44.4527 2.15556C43.6999 3.41025 44.1181 4.99952 45.2891 5.83598C44.8709 5.83598 44.4527 5.66869 44.0344 5.5014C44.0344 6.75608 44.9545 7.92712 46.2092 8.26171C45.791 8.34535 45.3728 8.429 44.9545 8.34535C45.2891 9.43275 46.2929 10.2692 47.5476 10.2692C46.5438 11.022 45.0382 11.4402 43.6162 11.273C44.8709 12.0258 46.2929 12.5276 47.7985 12.5276C52.9009 12.5276 55.7449 8.26171 55.5776 4.33035C56.1631 3.99577 56.665 3.49389 56.9995 2.90837Z" fill="#F9F3EE"/>
<path d="M13.5035 7.09059C13.5035 3.41018 10.4922 0.398926 6.81178 0.398926C3.13137 0.398926 0.120117 3.41018 0.120117 7.09059C0.120117 10.4364 2.54585 13.1967 5.72439 13.6986V9.01445H4.05147V7.09059H5.72439V5.58497C5.72439 3.91205 6.72814 2.99195 8.23376 2.99195C8.98658 2.99195 9.73939 3.15924 9.73939 3.15924V4.83216H8.90293C8.06647 4.83216 7.81553 5.33403 7.81553 5.83591V7.09059H9.65574L9.32116 9.01445H7.73189V13.7823C11.0777 13.2804 13.5035 10.4364 13.5035 7.09059Z" fill="#F9F3EE"/>
</svg>
