<svg width="157" height="55" viewBox="0 0 157 55" fill="none" xmlns="http://www.w3.org/2000/svg">
<rect width="157" height="55" rx="10" fill="#F7F8FD"/>
<g clip-path="url(#clip0_0_716)">
<path d="M27.357 28.832C27.4414 28.8323 27.5251 28.8158 27.6031 28.7837C27.6812 28.7515 27.7522 28.7043 27.8119 28.6446C27.8717 28.585 27.919 28.5141 27.9513 28.4361C27.9836 28.3581 28.0001 28.2744 28 28.19V26.143C28.0003 26.0585 27.9838 25.9748 27.9516 25.8966C27.9194 25.8185 27.872 25.7475 27.8123 25.6877C27.7525 25.628 27.6815 25.5806 27.6034 25.5484C27.5252 25.5162 27.4415 25.4997 27.357 25.5H16.643C16.5585 25.4997 16.4748 25.5162 16.3966 25.5484C16.3185 25.5806 16.2475 25.628 16.1877 25.6877C16.128 25.7475 16.0806 25.8185 16.0484 25.8966C16.0162 25.9748 15.9997 26.0585 16 26.143V28.189C16 28.546 16.287 28.832 16.643 28.832H27.357Z" fill="#505F4E"/>
</g>
<path d="M74.1875 32.4844L75.1094 30.7031C75.526 31.0104 75.9349 31.2422 76.3359 31.3984C76.7422 31.5547 77.1354 31.6328 77.5156 31.6328C77.8854 31.6328 78.2109 31.5625 78.4922 31.4219C78.7786 31.2812 79.0026 31.0859 79.1641 30.8359C79.3255 30.5859 79.4062 30.2995 79.4062 29.9766C79.4062 29.4401 79.1849 29.0234 78.7422 28.7266C78.2995 28.4245 77.6823 28.2734 76.8906 28.2734H76.3906V26.6016H76.8906C77.3177 26.6016 77.6979 26.5339 78.0312 26.3984C78.3698 26.2578 78.6354 26.0677 78.8281 25.8281C79.0208 25.5833 79.1172 25.3047 79.1172 24.9922C79.1172 24.7318 79.0469 24.5 78.9062 24.2969C78.7708 24.0938 78.5833 23.9349 78.3438 23.8203C78.1094 23.7057 77.8385 23.6484 77.5312 23.6484C77.2135 23.6484 76.8802 23.7161 76.5312 23.8516C76.1875 23.987 75.8255 24.1927 75.4453 24.4688L74.3906 22.7969C74.849 22.3958 75.3672 22.0885 75.9453 21.875C76.5234 21.6562 77.1276 21.5469 77.7578 21.5469C78.4609 21.5469 79.0833 21.6745 79.625 21.9297C80.1719 22.1849 80.6016 22.5365 80.9141 22.9844C81.2318 23.4323 81.3906 23.9479 81.3906 24.5312C81.3906 25.1667 81.2057 25.7344 80.8359 26.2344C80.4661 26.7344 79.9792 27.1172 79.375 27.3828C80.1615 27.6016 80.7786 27.9661 81.2266 28.4766C81.6797 28.987 81.9062 29.6068 81.9062 30.3359C81.9062 30.987 81.724 31.5703 81.3594 32.0859C81 32.5964 80.5078 33 79.8828 33.2969C79.2578 33.5885 78.5469 33.7344 77.75 33.7344C77.0938 33.7344 76.4609 33.6276 75.8516 33.4141C75.2422 33.1953 74.6875 32.8854 74.1875 32.4844Z" fill="black"/>
<g clip-path="url(#clip1_0_716)">
<path d="M141 28.523V26.477C141 26.3925 140.984 26.3088 140.952 26.2306C140.919 26.1525 140.872 26.0815 140.812 26.0218C140.753 25.962 140.682 25.9146 140.603 25.8824C140.525 25.8502 140.442 25.8337 140.357 25.834H136.667V22.143C136.667 22.0583 136.651 21.9744 136.618 21.8962C136.586 21.8179 136.539 21.7468 136.479 21.687C136.419 21.6273 136.347 21.5799 136.269 21.5478C136.191 21.5157 136.107 21.4995 136.022 21.5H133.977C133.892 21.4997 133.809 21.5162 133.731 21.5484C133.653 21.5806 133.582 21.628 133.522 21.6878C133.462 21.7475 133.415 21.8185 133.382 21.8966C133.35 21.9748 133.334 22.0585 133.334 22.143V25.833H129.643C129.558 25.8327 129.474 25.8493 129.396 25.8816C129.318 25.914 129.247 25.9615 129.187 26.0215C129.127 26.0814 129.08 26.1527 129.048 26.231C129.016 26.3094 128.999 26.3933 129 26.478V28.524C129 28.88 129.287 29.167 129.643 29.167H133.333V32.858C133.333 33.214 133.621 33.501 133.977 33.501H136.023C136.108 33.5013 136.191 33.4848 136.269 33.4526C136.348 33.4204 136.419 33.373 136.478 33.3133C136.538 33.2535 136.585 33.1825 136.618 33.1044C136.65 33.0263 136.666 32.9425 136.666 32.858V29.168H140.357C140.442 29.1683 140.526 29.1517 140.604 29.1193C140.682 29.0869 140.754 29.0393 140.813 28.9792C140.873 28.9191 140.92 28.8478 140.952 28.7693C140.985 28.6908 141.001 28.6068 141 28.522V28.523Z" fill="#505F4E"/>
</g>
<defs>
<clipPath id="clip0_0_716">
<rect width="12" height="4" fill="white" transform="translate(16 25.5)"/>
</clipPath>
<clipPath id="clip1_0_716">
<rect width="12" height="12" fill="white" transform="translate(129 21.5)"/>
</clipPath>
</defs>
</svg>
